<?xml version="1.0" encoding="UTF-8"?>
<svg width="18px" height="20px" viewBox="0 0 18 20" version="1.1" xmlns="http://www.w3.org/2000/svg" xmlns:xlink="http://www.w3.org/1999/xlink">
    <!-- Generator: Sketch 47.1 (45422) - http://www.bohemiancoding.com/sketch -->
    <title>9E</title>
    <desc>Created with Sketch.</desc>
    <defs></defs>
    <g id="Page-1" stroke="none" stroke-width="1" fill="none" fill-rule="evenodd">
        <g id="ข่าวสารทั้งหมด" transform="translate(-902.000000, -562.000000)" fill="#1A1919">
            <g id="Group-12" transform="translate(229.000000, 148.000000)">
                <g id="Group-10">
                    <g id="Group-4" transform="translate(673.000000, 55.000000)">
                        <g id="Group-3" transform="translate(0.000000, 359.000000)">
                            <g id="9E">
                                <path d="M16.5552632,17.4317073 C16.5505263,18.2658537 16.0152632,18.4043902 15.7026316,18.4121951 C15.7026316,18.4121951 2.93210526,18.4146341 2.37789474,18.415122 C2.12684211,18.415122 1.92789474,18.3429268 1.78578947,18.2 C1.58210526,17.9907317 1.47789474,17.6 1.47789474,17.0741463 C1.47789474,16.5956098 1.47789474,11.6731707 1.47789474,8.22926829 L16.56,8.22926829 C16.56,11.5365854 16.5647368,16.262439 16.5552632,17.4317073 Z M1.47789474,4.87463415 C1.47789474,4.1097561 1.76210526,3.78195122 2.43,3.77804878 C2.49157895,3.77756098 3.00315789,3.77756098 3.79421053,3.77707317 L3.79421053,4.85268293 C3.79421053,5.25658537 4.11157895,5.58439024 4.50473684,5.58439024 C4.89315789,5.58439024 5.21526316,5.25658537 5.21526316,4.85268293 L5.21526316,3.77707317 C5.51842105,3.77707317 5.84052632,3.77707317 6.17684211,3.77707317 C8.25631579,3.77707317 10.8,3.77707317 12.7136842,3.77707317 L12.7136842,4.85268293 C12.7136842,5.25658537 13.0310526,5.58439024 13.4242105,5.58439024 C13.8173684,5.58439024 14.1347368,5.25658537 14.1347368,4.85268293 L14.1347368,3.77707317 C14.9921053,3.77707317 15.5415789,3.77707317 15.5605263,3.77756098 C15.9063158,3.7897561 16.1526316,3.8804878 16.3089474,4.05658537 C16.5315789,4.30243902 16.5647368,4.70195122 16.56,4.82731707 C16.56,4.84341463 16.56,4.86 16.56,4.87658537 C16.56,4.90439024 16.56,5.65073171 16.56,6.76585366 L1.47789474,6.76585366 C1.47789474,5.63219512 1.47789474,4.87560976 1.47789474,4.87560976 C1.47789474,4.87512195 1.47789474,4.87463415 1.47789474,4.87463415 Z M17.9810526,4.89317073 C17.9857895,4.69121951 17.9857895,3.78292683 17.37,3.0804878 C17.0763158,2.74878049 16.5363158,2.34682927 15.5842105,2.31463415 C15.4847368,2.31463415 14.94,2.31463415 14.1347368,2.31414634 L14.1347368,1.19414634 C14.1347368,0.790243902 13.8173684,0.462439024 13.4242105,0.462439024 C13.0310526,0.462439024 12.7136842,0.790243902 12.7136842,1.19414634 L12.7136842,2.31414634 C10.4826316,2.31414634 7.42263158,2.31365854 5.21526316,2.31365854 L5.21526316,1.19414634 C5.21526316,0.790243902 4.89315789,0.462439024 4.50473684,0.462439024 C4.11157895,0.462439024 3.79421053,0.790243902 3.79421053,1.19414634 L3.79421053,2.31414634 C2.99842105,2.31414634 2.48210526,2.31414634 2.42526316,2.31463415 C1.27894737,2.32146341 0.0521052632,2.99804878 0.0568421053,4.87658537 C0.0568421053,4.99707317 0.0615789474,16.3302439 0.0568421053,17.0707317 C0.0568421053,18.0102439 0.298421053,18.7385366 0.781578947,19.235122 C1.19368421,19.6560976 1.74315789,19.8785366 2.37315789,19.8785366 C2.37789474,19.8785366 2.37789474,19.8785366 2.37789474,19.8785366 C2.93684211,19.8780488 15.7026316,19.8756098 15.6978947,19.8756098 C15.7026316,19.8756098 15.7026316,19.8756098 15.7026316,19.8756098 C16.6121053,19.8756098 17.9668421,19.2278049 17.9763158,17.4414634 C17.9905263,15.6360976 17.9810526,5.39707317 17.9810526,4.89317073 L17.9810526,4.89317073 Z M8.12842105,15.2029268 C8.12842105,15.6956098 8.51684211,16.0946341 8.99526316,16.0946341 C9.47368421,16.0946341 9.86210526,15.6956098 9.86210526,15.2029268 C9.86210526,14.7102439 9.47368421,14.3112195 8.99526316,14.3112195 C8.51684211,14.3112195 8.12842105,14.7102439 8.12842105,15.2029268 Z M3.69473684,15.2029268 C3.69473684,15.6956098 4.08315789,16.0946341 4.56157895,16.0946341 C5.04,16.0946341 5.42842105,15.6956098 5.42842105,15.2029268 C5.42842105,14.7102439 5.04,14.3112195 4.56157895,14.3112195 C4.08315789,14.3112195 3.69473684,14.7102439 3.69473684,15.2029268 Z M12.5621053,15.2029268 C12.5621053,15.6956098 12.9505263,16.0946341 13.4289474,16.0946341 C13.9073684,16.0946341 14.2957895,15.6956098 14.2957895,15.2029268 C14.2957895,14.7102439 13.9073684,14.3112195 13.4289474,14.3112195 C12.9505263,14.3112195 12.5621053,14.7102439 12.5621053,15.2029268 Z M8.12842105,11.1785366 C8.12842105,11.6712195 8.51684211,12.0702439 8.99526316,12.0702439 C9.47368421,12.0702439 9.86210526,11.6712195 9.86210526,11.1785366 C9.86210526,10.6858537 9.47368421,10.2868293 8.99526316,10.2868293 C8.51684211,10.2868293 8.12842105,10.6858537 8.12842105,11.1785366 Z M12.5621053,11.1785366 C12.5621053,11.6712195 12.9505263,12.0702439 13.4289474,12.0702439 C13.9073684,12.0702439 14.2957895,11.6712195 14.2957895,11.1785366 C14.2957895,10.6858537 13.9073684,10.2868293 13.4289474,10.2868293 C12.9505263,10.2868293 12.5621053,10.6858537 12.5621053,11.1785366 Z"></path>
                            </g>
                        </g>
                    </g>
                </g>
            </g>
        </g>
    </g>
</svg>