<?xml version="1.0" encoding="UTF-8"?>
<svg width="54px" height="62px" viewBox="0 0 54 62" version="1.1" xmlns="http://www.w3.org/2000/svg" xmlns:xlink="http://www.w3.org/1999/xlink">
    <!-- Generator: Sketch 47.1 (45422) - http://www.bohemiancoding.com/sketch -->
    <title>Orion_schoolbooks (1)</title>
    <desc>Created with Sketch.</desc>
    <defs></defs>
    <g id="Page-1" stroke="none" stroke-width="1" fill="none" fill-rule="evenodd">
        <g id="หน้าแรก-แบบใหม่1.2" transform="translate(-694.000000, -749.000000)">
            <g id="Group-3" transform="translate(231.000000, 665.000000)">
                <g id="Group" transform="translate(333.000000, 55.000000)">
                    <g id="Orion_schoolbooks-(1)" transform="translate(131.000000, 30.000000)">
                        <path d="M0,18 C0,15.790861 1.790861,14 4,14 L37,14 L37,22 L4,22 C1.790861,22 0,20.209139 0,18" id="Shape" fill="#FFFFFF" fill-rule="nonzero"></path>
                        <path d="M4,14 C2.67138448,14.0026891 1.43081123,14.6649011 0.689207488,15.767285 C-0.0523962492,16.869669 -0.198234563,18.268339 0.3,19.5 C0.910119993,17.9917334 2.37300779,17.0032957 4,17 L37,17 L37,14 L4,14 Z" id="Shape" fill="#000064" fill-rule="nonzero" opacity="0.15"></path>
                        <path d="M0,18 L0,56 C0,58.209139 1.790861,60 4,60 L40,60 L40,22 L4,22 C1.790861,22 0,20.209139 0,18" id="Shape" fill="#F27E7C" fill-rule="nonzero"></path>
                        <path d="M4,22 C1.790861,22 0,20.209139 0,18 L0,56 C0,58.209139 1.790861,60 4,60 L5,60 L5,22 L4,22 Z" id="Shape" fill="#000064" fill-rule="nonzero" opacity="0.15"></path>
                        <path d="M12,4 C12,1.790861 13.790861,4.4408921e-16 16,0 L49,0 L49,8 L16,8 C13.790861,8 12,6.209139 12,4" id="Shape" fill="#FFFFFF" fill-rule="nonzero"></path>
                        <path d="M16,0 C14.6713845,0.00268909985 13.4308112,0.664901103 12.6892075,1.76728504 C11.9476038,2.86966897 11.8017654,4.26833902 12.3,5.5 C12.91012,3.99173341 14.3730078,3.00329571 16,3 L49,3 L49,0 L16,0 Z" id="Shape" fill="#000064" fill-rule="nonzero" opacity="0.15"></path>
                        <path d="M16,8 C13.790861,8 12,6.209139 12,4 L12,14 L37,14 L37,22 L40,22 L40,46 L52,46 L52,8 L16,8 Z" id="Shape" fill="#99CCFF" fill-rule="nonzero"></path>
                        <path d="M16,8 C13.790861,8 12,6.209139 12,4 L12,14 L37,14 L37,22 L40,22 L40,46 L45,46 L45,8 L16,8 Z" id="Shape" fill="#000064" fill-rule="nonzero" opacity="0.15"></path>
                        <path d="M12,14 L12,4 C12,1.790861 13.790861,4.4408921e-16 16,0 L49,0 L49,8" id="Shape" stroke="#000000"></path>
                        <path d="M12,4 C12,6.209139 13.790861,8 16,8 L52,8 L52,46 L40,46" id="Shape" stroke="#000000"></path>
                        <path d="M0,18 C0,20.209139 1.790861,22 4,22 L40,22 L40,60 L4,60 C1.790861,60 0,58.209139 0,56 L0,18 C0,15.790861 1.790861,14 4,14 L37,14 L37,22" id="Shape" stroke="#000000"></path>
                    </g>
                </g>
            </g>
        </g>
    </g>
</svg>