<?xml version="1.0" encoding="UTF-8"?>
<svg width="31px" height="42px" viewBox="0 0 31 42" version="1.1" xmlns="http://www.w3.org/2000/svg" xmlns:xlink="http://www.w3.org/1999/xlink">
    <!-- Generator: Sketch 47.1 (45422) - http://www.bohemiancoding.com/sketch -->
    <title>Orion_textbook</title>
    <desc>Created with Sketch.</desc>
    <defs></defs>
    <g id="Page-1" stroke="none" stroke-width="1" fill="none" fill-rule="evenodd">
        <g id="หลักสูตรทั้งหมด" transform="translate(-761.000000, -230.000000)">
            <g id="Group-3" transform="translate(730.000000, 203.000000)">
                <g id="Orion_textbook" transform="translate(31.000000, 28.000000)">
                    <path d="M0.666666667,5.33333333 L0.666666667,34.6666667 C0.666666667,37.6121853 3.05448133,40 6,40 L30,40 L30,10.6666667 L6,10.6666667 C3.05448133,10.6666667 0.666666667,8.278852 0.666666667,5.33333333" id="Shape" fill="#49BCFF" fill-rule="nonzero"></path>
                    <path d="M29.3333333,0 L6,0 C3.05448133,-1.48029737e-16 0.666666667,2.38781467 0.666666667,5.33333333 C0.666666667,8.278852 3.05448133,10.6666667 6,10.6666667 L29.3333333,10.6666667 L29.3333333,0 Z" id="Shape" fill="#FFFFFF" fill-rule="nonzero"></path>
                    <path d="M6,0 C4.28925054,-0.000140694627 2.68226893,0.820387604 1.67919616,2.20621182 C0.676123392,3.59203604 0.398724118,5.3749287 0.933333333,7 C1.65317752,4.81186307 3.69649857,3.3331439 6,3.33333333 L29.3333333,3.33333333 L29.3333333,0 L6,0 Z" id="Shape" fill="#000064" fill-rule="nonzero" opacity="0.1"></path>
                    <path d="M0.666666667,5.33333333 L0.666666667,34.6666667 C0.666666667,37.6121853 3.05448133,40 6,40 L6,10.6666667 C3.05448133,10.6666667 0.666666667,8.278852 0.666666667,5.33333333 Z" id="Shape" fill="#000064" fill-rule="nonzero" opacity="0.15"></path>
                    <polygon id="Shape" fill="#FFFFFF" fill-rule="nonzero" points="8.66666667 16 22 16 22 26.6666667 8.66666667 26.6666667"></polygon>
                    <path d="M6,5.33333333 L26.6666667,5.33333333 M30,0 L6,0 C3.05448133,-1.48029737e-16 0.666666667,2.38781467 0.666666667,5.33333333 C0.666666667,8.278852 3.05448133,10.6666667 6,10.6666667 L30,10.6666667 L30,40 L6,40 C3.05448133,40 0.666666667,37.6121853 0.666666667,34.6666667 L0.666666667,5.33333333" id="Shape" stroke="#000000"></path>
                    <path d="M8.66666667,16 L22,16 L22,26.6666667 L8.66666667,26.6666667 L8.66666667,16 Z M29.3333333,0 L29.3333333,10.6666667 L29.3333333,0 Z" id="Shape" stroke="#000000"></path>
                </g>
            </g>
        </g>
    </g>
</svg>