<?xml version="1.0" encoding="UTF-8"?>
<svg width="82px" height="80px" viewBox="0 0 82 80" version="1.1" xmlns="http://www.w3.org/2000/svg" xmlns:xlink="http://www.w3.org/1999/xlink">
    <!-- Generator: Sketch 47.1 (45422) - http://www.bohemiancoding.com/sketch -->
    <title>Orion_profile-settings</title>
    <desc>Created with Sketch.</desc>
    <defs></defs>
    <g id="Page-1" stroke="none" stroke-width="1" fill="none" fill-rule="evenodd">
        <g id="บุคลากรทั้งหมด" transform="translate(-928.000000, -223.000000)">
            <g id="Group-4" transform="translate(729.000000, 203.000000)">
                <g id="Orion_profile-settings" transform="translate(200.000000, 20.000000)">
                    <path d="M75.8666667,63.3333333 C76.0275475,62.4980254 76.1167609,61.6504983 76.1333333,60.8 C76.1319476,59.8603934 76.0426698,58.9229764 75.8666667,58 L79.6,55.7333333 L74.6666667,47.0666667 L70.8,49.3333333 C69.5497384,48.2608332 68.15917,47.3636922 66.6666667,46.6666667 L66.6666667,42 L56,42 L56,46.6666667 C54.5082951,47.3651358 53.1179144,48.2621556 51.8666667,49.3333333 L48,47.0666667 L43.0666667,55.7333333 L46.8,57.8666667 C46.457403,59.6727859 46.457403,61.5272141 46.8,63.3333333 L42.6666667,65.7333333 L47.6,74.4 L51.6,72 C52.9334688,73.1277814 54.4135995,74.0696828 56,74.8 L56,79.3333333 L66.6666667,79.3333333 L66.6666667,74.8 C68.2071458,74.0606807 69.6420402,73.1190313 70.9333333,72 L75.0666667,74.4 L80,65.7333333 L75.8666667,63.3333333 Z M61.3333333,66 C58.3878147,66 56,63.6121853 56,60.6666667 C56,57.721148 58.3878147,55.3333333 61.3333333,55.3333333 C64.278852,55.3333333 66.6666667,57.721148 66.6666667,60.6666667 C66.6666667,63.6121853 64.278852,66 61.3333333,66 Z" id="Shape" fill="#8FA9D8" fill-rule="nonzero"></path>
                    <path d="M46.8,63.3333333 C46.463627,61.5266343 46.463627,59.6733657 46.8,57.8666667 L43.0666667,55.7333333 L44.8,52.6666667 L43.3333333,52 C41.3640716,51.2834591 40.0391295,49.4285402 40,47.3333333 L40,44.6666667 C42.6482968,42.1409594 44.5018593,38.897225 45.3333333,35.3333333 C48.6666667,35.3333333 50.6666667,31.3333333 50.6666667,27.3333333 C50.6666667,26.2666667 50.6666667,22 48,22 C54.6666667,2.66666667 35.2,-4.66666667 21.3333333,4.66666667 C15.4666667,4.66666667 13.8666667,13.4666667 16,22 C13.3333333,22 13.3333333,26.2666667 13.3333333,27.3333333 C13.3333333,31.3333333 15.3333333,35.3333333 18.6666667,35.3333333 C19.5053681,38.8943826 21.3578214,42.1361757 24,44.6666667 L24,47.3333333 C24,49.4666667 23.3333333,52.1333333 12.5333333,54.2666667 C1.73333333,56.4 0,66 0,66 L42.8,66 L42.8,65.7333333 L46.8,63.3333333 Z" id="Shape" fill="#A5D0EC" fill-rule="nonzero"></path>
                    <path d="M42.6666667,65.7333333 L46.8,63.3333333 C46.463627,61.5266343 46.463627,59.6733657 46.8,57.8666667 L43.0666667,55.7333333 L44.8,52.6666667 L43.3333333,52 C42.4615338,51.5925848 41.6882681,51.0012639 41.0666667,50.2666667 L36.4,58.4 L40.1333333,60.5333333 C39.7907364,62.3394526 39.7907364,64.1938807 40.1333333,66 L42.9333333,66 L42.6666667,65.7333333 Z M24,35.3333333 C25.0666667,39.3333333 29.4666667,42.4 32,44.6666667 L32,47.3333333 C32,49.4666667 31.3333333,52.1333333 20.5333333,54.2666667 C9.73333333,56.4 8,66 8,66 L0,66 C0,66 0,56.6666667 12.5333333,54.2666667 C25.0666667,51.8666667 24,49.4666667 24,47.3333333 L24,44.6666667 C21.3197355,42.1661232 19.4602314,38.911991 18.6666667,35.3333333 C15.3333333,35.3333333 13.3333333,31.3333333 13.3333333,27.3333333 C13.3333333,26.2666667 13.3333333,22 16,22 C13.8666667,13.4666667 15.4666667,4.66666667 21.3333333,4.66666667 C26.1911709,1.30281753 32.1868454,0.00775183988 38,1.06666667 C34.9002912,1.67785021 31.953809,2.90177359 29.3333333,4.66666667 C23.4666667,4.66666667 19.2,13.4666667 21.3333333,22 C21.3333333,22 20,32.6666667 24,35.3333333 Z" id="Shape" fill="#000064" fill-rule="nonzero" opacity="0.15"></path>
                    <path d="M42.9333333,66 L0,66 C0,66 0,56.6666667 12.5333333,54.2666667 C25.0666667,51.8666667 24,49.4666667 24,47.3333333 L24,44.6666667 C21.3578214,42.1361757 19.5053681,38.8943826 18.6666667,35.3333333 C15.3333333,35.3333333 13.3333333,31.3333333 13.3333333,27.3333333 C13.3333333,26.2666667 13.3333333,22 16,22 C13.8666667,13.4666667 15.4666667,4.66666667 21.3333333,4.66666667 C35.2,-4.66666667 54.6666667,2.66666667 48,22 C50.6666667,22 50.6666667,26.2666667 50.6666667,27.3333333 C50.6666667,31.3333333 48.6666667,35.3333333 45.3333333,35.3333333 C44.5018593,38.897225 42.6482968,42.1409594 40,44.6666667 L40,47.3333333 C40.0391295,49.4285402 41.3640716,51.2834591 43.3333333,52 L44.8,52.8" id="Shape" stroke="#000000"></path>
                    <circle id="Oval" stroke="#000000" cx="61.3333333" cy="60.6666667" r="5.33333333"></circle>
                    <path d="M80,65.7333333 L75.8666667,63.3333333 C76.0275475,62.4980254 76.1167609,61.6504983 76.1333333,60.8 C76.1319476,59.8603934 76.0426698,58.9229764 75.8666667,58 L79.6,55.7333333 L74.6666667,47.0666667 L70.8,49.3333333 C69.6097098,48.1828951 68.2054589,47.2769267 66.6666667,46.6666667 L66.6666667,42 L56,42 L56,46.6666667 C54.4184536,47.2707555 52.9693718,48.1764316 51.7333333,49.3333333 L48,47.0666667 L43.0666667,55.7333333 L46.8,57.8666667 C46.457403,59.6727859 46.457403,61.5272141 46.8,63.3333333 L42.6666667,65.7333333 L47.6,74.4 L51.6,72 C52.8636097,73.2195233 54.3600795,74.1718222 56,74.8 L56,79.3333333 L66.6666667,79.3333333 L66.6666667,74.8 C68.2624177,74.1625236 69.7134759,73.2102667 70.9333333,72 L75.0666667,74.4 L80,65.7333333 Z" id="Shape" stroke="#000000"></path>
                </g>
            </g>
        </g>
    </g>
</svg>