<?xml version="1.0" encoding="UTF-8"?>
<svg width="81px" height="81px" viewBox="0 0 81 81" version="1.1" xmlns="http://www.w3.org/2000/svg" xmlns:xlink="http://www.w3.org/1999/xlink">
    <!-- Generator: Sketch 47.1 (45422) - http://www.bohemiancoding.com/sketch -->
    <title>Orion_starred-user</title>
    <desc>Created with Sketch.</desc>
    <defs></defs>
    <g id="Page-1" stroke="none" stroke-width="1" fill="none" fill-rule="evenodd">
        <g id="บุคลากรทั้งหมด" transform="translate(-428.000000, -223.000000)">
            <g id="Group-4" transform="translate(229.000000, 203.000000)">
                <g id="Orion_starred-user" transform="translate(200.000000, 21.000000)">
                    <polygon id="Shape" fill="#FFCC66" fill-rule="nonzero" points="58.6666667 69.6885246 45.4666667 79 50.5333333 63.9180328 37.3333333 55.3934426 53.6 55.3934426 58.6666667 39.6557377 63.7333333 55.3934426 80 55.3934426 66.8 63.9180328 71.8666667 79"></polygon>
                    <path d="M37.3333333,55.3934426 L53.6,55.3934426 L54.1333333,53.6885246 L45.2,51.4590164 C40.8,50.147541 40,47.6557377 40,46.2131148 L40,43.5901639 C42.6482968,41.1058617 44.5018593,37.9153033 45.3333333,34.4098361 C48.6666667,34.4098361 50.6666667,30.4754098 50.6666667,26.5409836 C50.6666667,25.4918033 50.6666667,21.295082 48,21.295082 C54.6666667,2.27868852 35.2,-4.93442623 21.3333333,4.24590164 C15.4666667,4.24590164 13.8666667,12.9016393 16,21.295082 C13.3333333,21.295082 13.3333333,25.4918033 13.3333333,26.5409836 C13.3333333,30.4754098 15.3333333,34.4098361 18.6666667,34.4098361 C19.4602314,37.9298272 21.3197355,41.1306129 24,43.5901639 L24,46.2131148 C24,48.3114754 23.3333333,50.9344262 12.5333333,53.0327869 C1.73333333,55.1311475 0,64.5737705 0,64.5737705 L50.4,64.5737705 L50.6666667,63.9180328 L37.3333333,55.3934426 Z" id="Shape" fill="#A5D0EC" fill-rule="nonzero"></path>
                    <path d="M50.5333333,63.9180328 L41.3333333,58.0163934 L26.6666667,58.0163934 L36.8,64.5737705 L50.4,64.5737705 L50.5333333,63.9180328 Z M52.1333333,55.3934426 L51.3333333,53.0327869 L45.2,51.4590164 L45.0666667,51.4590164 L43.8666667,55.3934426 L52.1333333,55.3934426 Z M24,34.4098361 C25.0666667,38.3442623 29.4666667,41.3606557 32,43.5901639 L32,46.2131148 C32,48.3114754 31.3333333,50.9344262 20.5333333,53.0327869 C9.73333333,55.1311475 8,64.5737705 8,64.5737705 L0,64.5737705 C0,64.5737705 0,55.3934426 12.5333333,53.0327869 C25.0666667,50.6721311 24,48.3114754 24,46.2131148 L24,43.5901639 C21.3197355,41.1306129 19.4602314,37.9298272 18.6666667,34.4098361 C15.3333333,34.4098361 13.3333333,30.4754098 13.3333333,26.5409836 C13.3333333,25.4918033 13.3333333,21.295082 16,21.295082 C13.8666667,12.9016393 15.4666667,4.24590164 21.3333333,4.24590164 C26.1911709,0.937197568 32.1868454,-0.336637535 38,0.704918033 C34.9002912,1.30608217 31.953809,2.50994123 29.3333333,4.24590164 C23.4666667,4.24590164 19.2,12.9016393 21.3333333,21.295082 C21.3333333,21.295082 20,31.7868852 24,34.4098361 Z" id="Shape" fill="#000064" fill-rule="nonzero" opacity="0.15"></path>
                    <path d="M50.4,64.5737705 L0,64.5737705 C0,64.5737705 0,55.3934426 12.5333333,53.0327869 C25.0666667,50.6721311 24,48.3114754 24,46.2131148 L24,43.5901639 C21.3578214,41.1011565 19.5053681,37.9125075 18.6666667,34.4098361 C15.3333333,34.4098361 13.3333333,30.4754098 13.3333333,26.5409836 C13.3333333,25.4918033 13.3333333,21.295082 16,21.295082 C13.8666667,12.9016393 15.4666667,4.24590164 21.3333333,4.24590164 C35.2,-4.93442623 54.6666667,2.27868852 48,21.295082 C50.6666667,21.295082 50.6666667,25.4918033 50.6666667,26.5409836 C50.6666667,30.4754098 48.6666667,34.4098361 45.3333333,34.4098361 C44.5018593,37.9153033 42.6482968,41.1058617 40,43.5901639 L40,46.2131148 C40,47.6557377 40.6666667,50.147541 45.2,51.4590164 L54.2666667,53.6885246" id="Shape" stroke="#000000"></path>
                    <polygon id="Shape" stroke="#000000" points="58.6666667 69.6885246 45.4666667 79 50.5333333 63.9180328 37.3333333 55.3934426 53.6 55.3934426 58.6666667 39.6557377 63.7333333 55.3934426 80 55.3934426 66.8 63.9180328 71.8666667 79"></polygon>
                </g>
            </g>
        </g>
    </g>
</svg>